# xmcd
#
# Track frame offsets: 
#        150
#        23055
#        40768
#        67708
#        89858
#        105498
#        122910
#        146115
#        168438
#        187970
#        209650
#        234083
#
# Disc length: 3371 seconds
#
# Revision: 10
# Processed by: cddbd v1.5.2PL0 Copyright (c) Steve Scherf et al.
# Submitted via: ExactAudioCopy v1.3
#
DISCID=a10d290c
DTITLE=レミオロメン - HORIZON
DYEAR=2006
DGENRE=Rock
TTITLE0=スタンドバイミー
TTITLE1=1-2 Love Forever
TTITLE2=プログラム
TTITLE3=蒼の世界
TTITLE4=シフト
TTITLE5=傘クラゲ
TTITLE6=太陽の下
TTITLE7=MONSTER
TTITLE8=明日に架かる橋
TTITLE9=紙ふぶき
TTITLE10=粉雪
TTITLE11=流星
EXTD=YEAR: 2006
EXTT0=
EXTT1=
EXTT2=
EXTT3=
EXTT4=
EXTT5=
EXTT6=
EXTT7=
EXTT8=
EXTT9=
EXTT10=
EXTT11=
PLAYORDER=
